<mxfile host="Electron" agent="Mozilla/5.0 (Windows NT 10.0; Win64; x64) AppleWebKit/537.36 (KHTML, like Gecko) draw.io/24.7.17 Chrome/128.0.6613.36 Electron/32.0.1 Safari/537.36" version="24.7.17">
  <diagram name="Page-1" id="gKl1hSPkP9tuDKRVHKfg">
    <mxGraphModel dx="819" dy="478" grid="1" gridSize="10" guides="1" tooltips="1" connect="1" arrows="1" fold="1" page="1" pageScale="1" pageWidth="827" pageHeight="1169" background="none" math="0" shadow="1">
      <root>
        <mxCell id="0" />
        <mxCell id="1" parent="0" />
        <mxCell id="ChkhM-89AtLazQM2Gveq-3" value="" style="edgeStyle=orthogonalEdgeStyle;rounded=1;orthogonalLoop=1;jettySize=auto;html=1;labelBackgroundColor=none;fontColor=default;fontStyle=0;strokeColor=default;" edge="1" parent="1" source="ChkhM-89AtLazQM2Gveq-1" target="ChkhM-89AtLazQM2Gveq-2">
          <mxGeometry relative="1" as="geometry" />
        </mxCell>
        <mxCell id="ChkhM-89AtLazQM2Gveq-1" value="&lt;font style=&quot;font-size: 10px;&quot;&gt;start&lt;/font&gt;" style="ellipse;whiteSpace=wrap;html=1;labelBackgroundColor=none;rounded=1;fontStyle=0;strokeColor=default;" vertex="1" parent="1">
          <mxGeometry x="353" y="90" width="120" height="80" as="geometry" />
        </mxCell>
        <mxCell id="ChkhM-89AtLazQM2Gveq-5" value="" style="edgeStyle=orthogonalEdgeStyle;rounded=1;orthogonalLoop=1;jettySize=auto;html=1;labelBackgroundColor=none;fontColor=default;fontStyle=0;strokeColor=default;" edge="1" parent="1" source="ChkhM-89AtLazQM2Gveq-2" target="ChkhM-89AtLazQM2Gveq-4">
          <mxGeometry relative="1" as="geometry" />
        </mxCell>
        <mxCell id="ChkhM-89AtLazQM2Gveq-2" value="display splash screen" style="rounded=1;whiteSpace=wrap;html=1;labelBackgroundColor=none;fontSize=10;fontStyle=0;strokeColor=default;" vertex="1" parent="1">
          <mxGeometry x="353" y="210" width="120" height="60" as="geometry" />
        </mxCell>
        <mxCell id="ChkhM-89AtLazQM2Gveq-7" value="" style="edgeStyle=orthogonalEdgeStyle;rounded=0;hachureGap=4;orthogonalLoop=1;jettySize=auto;html=1;fontFamily=Architects Daughter;fontSource=https%3A%2F%2Ffonts.googleapis.com%2Fcss%3Ffamily%3DArchitects%2BDaughter;fontStyle=0;strokeColor=default;" edge="1" parent="1" source="ChkhM-89AtLazQM2Gveq-4" target="ChkhM-89AtLazQM2Gveq-6">
          <mxGeometry relative="1" as="geometry" />
        </mxCell>
        <mxCell id="ChkhM-89AtLazQM2Gveq-4" value="display front page" style="rounded=1;whiteSpace=wrap;html=1;labelBackgroundColor=none;fontSize=10;fontStyle=0;strokeColor=default;" vertex="1" parent="1">
          <mxGeometry x="353" y="310" width="120" height="60" as="geometry" />
        </mxCell>
        <mxCell id="ChkhM-89AtLazQM2Gveq-9" style="edgeStyle=orthogonalEdgeStyle;rounded=0;hachureGap=4;orthogonalLoop=1;jettySize=auto;html=1;entryX=0.5;entryY=0;entryDx=0;entryDy=0;fontFamily=Architects Daughter;fontSource=https%3A%2F%2Ffonts.googleapis.com%2Fcss%3Ffamily%3DArchitects%2BDaughter;" edge="1" parent="1" source="ChkhM-89AtLazQM2Gveq-6" target="ChkhM-89AtLazQM2Gveq-8">
          <mxGeometry relative="1" as="geometry" />
        </mxCell>
        <mxCell id="ChkhM-89AtLazQM2Gveq-28" value="Yes" style="edgeLabel;html=1;align=center;verticalAlign=middle;resizable=0;points=[];" vertex="1" connectable="0" parent="ChkhM-89AtLazQM2Gveq-9">
          <mxGeometry x="-0.4094" relative="1" as="geometry">
            <mxPoint as="offset" />
          </mxGeometry>
        </mxCell>
        <mxCell id="ChkhM-89AtLazQM2Gveq-26" value="" style="edgeStyle=orthogonalEdgeStyle;rounded=0;orthogonalLoop=1;jettySize=auto;html=1;" edge="1" parent="1" source="ChkhM-89AtLazQM2Gveq-6" target="ChkhM-89AtLazQM2Gveq-25">
          <mxGeometry relative="1" as="geometry" />
        </mxCell>
        <mxCell id="ChkhM-89AtLazQM2Gveq-27" value="No" style="edgeLabel;html=1;align=center;verticalAlign=middle;resizable=0;points=[];" vertex="1" connectable="0" parent="ChkhM-89AtLazQM2Gveq-26">
          <mxGeometry x="0.0672" y="1" relative="1" as="geometry">
            <mxPoint as="offset" />
          </mxGeometry>
        </mxCell>
        <mxCell id="ChkhM-89AtLazQM2Gveq-6" value="user clicks login button?" style="rhombus;whiteSpace=wrap;html=1;rounded=1;labelBackgroundColor=none;fontSize=10;fontStyle=0;labelBorderColor=none;strokeColor=default;" vertex="1" parent="1">
          <mxGeometry x="364.5" y="410" width="97" height="80" as="geometry" />
        </mxCell>
        <mxCell id="ChkhM-89AtLazQM2Gveq-11" value="" style="edgeStyle=orthogonalEdgeStyle;rounded=0;orthogonalLoop=1;jettySize=auto;html=1;" edge="1" parent="1" source="ChkhM-89AtLazQM2Gveq-8" target="ChkhM-89AtLazQM2Gveq-10">
          <mxGeometry relative="1" as="geometry" />
        </mxCell>
        <mxCell id="ChkhM-89AtLazQM2Gveq-8" value="input username and password" style="shape=parallelogram;perimeter=parallelogramPerimeter;whiteSpace=wrap;html=1;fixedSize=1;hachureGap=4;fontFamily=Helvetica;fontSize=10;" vertex="1" parent="1">
          <mxGeometry x="364.5" y="535" width="96" height="50" as="geometry" />
        </mxCell>
        <mxCell id="ChkhM-89AtLazQM2Gveq-13" value="" style="edgeStyle=orthogonalEdgeStyle;rounded=0;orthogonalLoop=1;jettySize=auto;html=1;" edge="1" parent="1" source="ChkhM-89AtLazQM2Gveq-10" target="ChkhM-89AtLazQM2Gveq-12">
          <mxGeometry relative="1" as="geometry" />
        </mxCell>
        <mxCell id="ChkhM-89AtLazQM2Gveq-18" value="Yes" style="edgeLabel;html=1;align=center;verticalAlign=middle;resizable=0;points=[];" vertex="1" connectable="0" parent="ChkhM-89AtLazQM2Gveq-13">
          <mxGeometry x="-0.3733" y="-1" relative="1" as="geometry">
            <mxPoint as="offset" />
          </mxGeometry>
        </mxCell>
        <mxCell id="ChkhM-89AtLazQM2Gveq-41" style="edgeStyle=orthogonalEdgeStyle;rounded=0;orthogonalLoop=1;jettySize=auto;html=1;entryX=0.1;entryY=0.416;entryDx=0;entryDy=0;entryPerimeter=0;" edge="1" parent="1" source="ChkhM-89AtLazQM2Gveq-10" target="ChkhM-89AtLazQM2Gveq-8">
          <mxGeometry relative="1" as="geometry">
            <mxPoint x="270" y="550" as="targetPoint" />
            <Array as="points">
              <mxPoint x="270" y="670" />
              <mxPoint x="270" y="556" />
            </Array>
          </mxGeometry>
        </mxCell>
        <mxCell id="ChkhM-89AtLazQM2Gveq-42" value="No" style="edgeLabel;html=1;align=center;verticalAlign=middle;resizable=0;points=[];" vertex="1" connectable="0" parent="ChkhM-89AtLazQM2Gveq-41">
          <mxGeometry x="0.0244" y="-1" relative="1" as="geometry">
            <mxPoint as="offset" />
          </mxGeometry>
        </mxCell>
        <mxCell id="ChkhM-89AtLazQM2Gveq-10" value="account exist?" style="rhombus;whiteSpace=wrap;html=1;fontSize=10;hachureGap=4;" vertex="1" parent="1">
          <mxGeometry x="372.5" y="630" width="80" height="80" as="geometry" />
        </mxCell>
        <mxCell id="ChkhM-89AtLazQM2Gveq-15" value="" style="edgeStyle=orthogonalEdgeStyle;rounded=0;orthogonalLoop=1;jettySize=auto;html=1;entryX=0.5;entryY=0;entryDx=0;entryDy=0;" edge="1" parent="1" source="ChkhM-89AtLazQM2Gveq-12" target="ChkhM-89AtLazQM2Gveq-16">
          <mxGeometry relative="1" as="geometry">
            <mxPoint x="412.5" y="890" as="targetPoint" />
          </mxGeometry>
        </mxCell>
        <mxCell id="ChkhM-89AtLazQM2Gveq-19" value="Yes" style="edgeLabel;html=1;align=center;verticalAlign=middle;resizable=0;points=[];" vertex="1" connectable="0" parent="ChkhM-89AtLazQM2Gveq-15">
          <mxGeometry x="-0.1" y="1" relative="1" as="geometry">
            <mxPoint as="offset" />
          </mxGeometry>
        </mxCell>
        <mxCell id="ChkhM-89AtLazQM2Gveq-20" style="edgeStyle=orthogonalEdgeStyle;rounded=0;orthogonalLoop=1;jettySize=auto;html=1;entryX=0;entryY=0.5;entryDx=0;entryDy=0;" edge="1" parent="1" source="ChkhM-89AtLazQM2Gveq-12" target="ChkhM-89AtLazQM2Gveq-17">
          <mxGeometry relative="1" as="geometry">
            <mxPoint x="580" y="830" as="targetPoint" />
          </mxGeometry>
        </mxCell>
        <mxCell id="ChkhM-89AtLazQM2Gveq-21" value="No" style="edgeLabel;html=1;align=center;verticalAlign=middle;resizable=0;points=[];" vertex="1" connectable="0" parent="ChkhM-89AtLazQM2Gveq-20">
          <mxGeometry x="-0.057" y="1" relative="1" as="geometry">
            <mxPoint as="offset" />
          </mxGeometry>
        </mxCell>
        <mxCell id="ChkhM-89AtLazQM2Gveq-12" value="is account admin?" style="rhombus;whiteSpace=wrap;html=1;fontSize=10;hachureGap=4;" vertex="1" parent="1">
          <mxGeometry x="372.5" y="760" width="80" height="80" as="geometry" />
        </mxCell>
        <mxCell id="ChkhM-89AtLazQM2Gveq-16" value="admin" style="verticalLabelPosition=bottom;verticalAlign=top;html=1;shape=offPageConnector;rounded=0;size=0.5;" vertex="1" parent="1">
          <mxGeometry x="382.5" y="920" width="60" height="60" as="geometry" />
        </mxCell>
        <mxCell id="ChkhM-89AtLazQM2Gveq-17" value="Staff" style="verticalLabelPosition=bottom;verticalAlign=top;html=1;shape=offPageConnector;rounded=0;size=0.5;" vertex="1" parent="1">
          <mxGeometry x="590" y="770" width="60" height="60" as="geometry" />
        </mxCell>
        <mxCell id="ChkhM-89AtLazQM2Gveq-31" style="edgeStyle=orthogonalEdgeStyle;rounded=0;orthogonalLoop=1;jettySize=auto;html=1;" edge="1" parent="1" source="ChkhM-89AtLazQM2Gveq-25" target="ChkhM-89AtLazQM2Gveq-30">
          <mxGeometry relative="1" as="geometry" />
        </mxCell>
        <mxCell id="ChkhM-89AtLazQM2Gveq-32" value="Yes" style="edgeLabel;html=1;align=center;verticalAlign=middle;resizable=0;points=[];" vertex="1" connectable="0" parent="ChkhM-89AtLazQM2Gveq-31">
          <mxGeometry x="-0.2057" relative="1" as="geometry">
            <mxPoint as="offset" />
          </mxGeometry>
        </mxCell>
        <mxCell id="ChkhM-89AtLazQM2Gveq-43" style="edgeStyle=orthogonalEdgeStyle;rounded=0;orthogonalLoop=1;jettySize=auto;html=1;entryX=1;entryY=0.5;entryDx=0;entryDy=0;exitX=0.5;exitY=0;exitDx=0;exitDy=0;" edge="1" parent="1" source="ChkhM-89AtLazQM2Gveq-25" target="ChkhM-89AtLazQM2Gveq-4">
          <mxGeometry relative="1" as="geometry">
            <mxPoint x="600" y="400" as="sourcePoint" />
            <mxPoint x="597.5" y="345" as="targetPoint" />
            <Array as="points">
              <mxPoint x="575" y="340" />
            </Array>
          </mxGeometry>
        </mxCell>
        <mxCell id="ChkhM-89AtLazQM2Gveq-44" value="No" style="edgeLabel;html=1;align=center;verticalAlign=middle;resizable=0;points=[];" vertex="1" connectable="0" parent="ChkhM-89AtLazQM2Gveq-43">
          <mxGeometry x="-0.04" y="-2" relative="1" as="geometry">
            <mxPoint x="13" y="32" as="offset" />
          </mxGeometry>
        </mxCell>
        <mxCell id="ChkhM-89AtLazQM2Gveq-25" value="account clicks sign up button?" style="rhombus;whiteSpace=wrap;html=1;fontSize=10;rounded=1;labelBackgroundColor=none;fontStyle=0;labelBorderColor=none;" vertex="1" parent="1">
          <mxGeometry x="530" y="410" width="90" height="80" as="geometry" />
        </mxCell>
        <mxCell id="ChkhM-89AtLazQM2Gveq-50" value="" style="edgeStyle=orthogonalEdgeStyle;rounded=0;orthogonalLoop=1;jettySize=auto;html=1;" edge="1" parent="1" source="ChkhM-89AtLazQM2Gveq-30" target="ChkhM-89AtLazQM2Gveq-49">
          <mxGeometry relative="1" as="geometry" />
        </mxCell>
        <mxCell id="ChkhM-89AtLazQM2Gveq-30" value="input user informations" style="shape=parallelogram;perimeter=parallelogramPerimeter;whiteSpace=wrap;html=1;fixedSize=1;hachureGap=4;fontFamily=Helvetica;fontSize=10;" vertex="1" parent="1">
          <mxGeometry x="660" y="425" width="96" height="50" as="geometry" />
        </mxCell>
        <mxCell id="ChkhM-89AtLazQM2Gveq-35" style="edgeStyle=orthogonalEdgeStyle;rounded=0;orthogonalLoop=1;jettySize=auto;html=1;entryX=1;entryY=0.5;entryDx=0;entryDy=0;" edge="1" parent="1" source="ChkhM-89AtLazQM2Gveq-33" target="ChkhM-89AtLazQM2Gveq-1">
          <mxGeometry relative="1" as="geometry" />
        </mxCell>
        <mxCell id="ChkhM-89AtLazQM2Gveq-33" value="A" style="ellipse;whiteSpace=wrap;html=1;labelBackgroundColor=none;rounded=1;fontStyle=0;" vertex="1" parent="1">
          <mxGeometry x="573" y="90" width="80" height="80" as="geometry" />
        </mxCell>
        <mxCell id="ChkhM-89AtLazQM2Gveq-52" value="" style="edgeStyle=orthogonalEdgeStyle;rounded=0;orthogonalLoop=1;jettySize=auto;html=1;" edge="1" parent="1" source="ChkhM-89AtLazQM2Gveq-49" target="ChkhM-89AtLazQM2Gveq-51">
          <mxGeometry relative="1" as="geometry" />
        </mxCell>
        <mxCell id="ChkhM-89AtLazQM2Gveq-54" value="Yes" style="edgeLabel;html=1;align=center;verticalAlign=middle;resizable=0;points=[];" vertex="1" connectable="0" parent="ChkhM-89AtLazQM2Gveq-52">
          <mxGeometry x="-0.2533" y="1" relative="1" as="geometry">
            <mxPoint as="offset" />
          </mxGeometry>
        </mxCell>
        <mxCell id="ChkhM-89AtLazQM2Gveq-55" style="edgeStyle=orthogonalEdgeStyle;rounded=0;orthogonalLoop=1;jettySize=auto;html=1;entryX=0.5;entryY=0;entryDx=0;entryDy=0;" edge="1" parent="1" source="ChkhM-89AtLazQM2Gveq-49" target="ChkhM-89AtLazQM2Gveq-30">
          <mxGeometry relative="1" as="geometry">
            <Array as="points">
              <mxPoint x="920" y="450" />
              <mxPoint x="920" y="330" />
              <mxPoint x="708" y="330" />
            </Array>
          </mxGeometry>
        </mxCell>
        <mxCell id="ChkhM-89AtLazQM2Gveq-56" value="No" style="edgeLabel;html=1;align=center;verticalAlign=middle;resizable=0;points=[];" vertex="1" connectable="0" parent="ChkhM-89AtLazQM2Gveq-55">
          <mxGeometry x="-0.891" relative="1" as="geometry">
            <mxPoint as="offset" />
          </mxGeometry>
        </mxCell>
        <mxCell id="ChkhM-89AtLazQM2Gveq-49" value="valid inputs?" style="rhombus;whiteSpace=wrap;html=1;fontSize=10;hachureGap=4;" vertex="1" parent="1">
          <mxGeometry x="790" y="410" width="80" height="80" as="geometry" />
        </mxCell>
        <mxCell id="ChkhM-89AtLazQM2Gveq-51" value="display feedback message" style="whiteSpace=wrap;html=1;fontSize=10;hachureGap=4;" vertex="1" parent="1">
          <mxGeometry x="770" y="535" width="120" height="60" as="geometry" />
        </mxCell>
        <mxCell id="ChkhM-89AtLazQM2Gveq-53" style="edgeStyle=orthogonalEdgeStyle;rounded=0;orthogonalLoop=1;jettySize=auto;html=1;entryX=0.884;entryY=0.616;entryDx=0;entryDy=0;entryPerimeter=0;" edge="1" parent="1" source="ChkhM-89AtLazQM2Gveq-51" target="ChkhM-89AtLazQM2Gveq-8">
          <mxGeometry relative="1" as="geometry" />
        </mxCell>
      </root>
    </mxGraphModel>
  </diagram>
</mxfile>
